<?xml version="1.0" standalone="no"?>
<!DOCTYPE svg PUBLIC "-//W3C//DTD SVG 20010904//EN"
 "http://www.w3.org/TR/2001/REC-SVG-20010904/DTD/svg10.dtd">
<svg version="1.0" xmlns="http://www.w3.org/2000/svg"
 width="1829.000000pt" height="1829.000000pt" viewBox="0 0 1829.000000 1829.000000"
 preserveAspectRatio="xMidYMid meet">
<metadata>
Created by potrace 1.11, written by Peter Selinger 2001-2013
</metadata>
<g transform="translate(0.000000,1829.000000) scale(0.100000,-0.100000)"
fill="#000000" stroke="none">
<path d="M700 18095 c-30 -6 -74 -21 -97 -33 -48 -25 -110 -102 -142 -176 -24
-55 -56 -207 -66 -306 -10 -105 -4 -426 9 -505 3 -17 8 -57 11 -90 8 -73 52
-347 65 -395 5 -19 12 -51 15 -70 5 -27 43 -179 59 -235 1 -5 8 -30 15 -55 27
-100 95 -268 130 -319 55 -84 147 -137 266 -156 49 -7 169 -7 210 0 17 3 57
10 90 16 32 6 79 17 103 26 25 8 52 16 61 18 48 10 244 101 366 170 51 29 196
124 205 134 3 3 31 26 64 50 66 49 64 47 171 151 151 146 262 312 311 463 32
101 30 240 -6 312 -72 149 -529 508 -915 720 -408 224 -730 322 -925 280z"/>
<path d="M17448 18105 c-2 -2 -23 -5 -48 -9 -76 -10 -114 -18 -131 -27 -9 -4
-19 -6 -22 -2 -4 3 -13 0 -22 -7 -8 -7 -15 -9 -15 -6 0 4 -9 2 -21 -4 -11 -6
-28 -13 -37 -15 -57 -11 -336 -138 -465 -212 -34 -19 -82 -47 -107 -61 -100
-56 -392 -256 -505 -346 -208 -167 -306 -273 -335 -364 -17 -54 -17 -176 0
-239 14 -50 74 -182 111 -243 110 -181 401 -445 644 -582 403 -228 754 -297
973 -190 106 51 153 120 226 330 62 177 145 534 171 732 3 25 8 52 10 60 2 8
7 51 11 95 3 44 8 89 11 100 2 11 6 112 8 225 8 470 -85 710 -294 755 -32 7
-158 14 -163 10z"/>
<path d="M8867 16884 c-1 -1 -110 -4 -242 -8 -132 -4 -271 -9 -310 -11 -38 -2
-124 -7 -190 -10 -66 -3 -140 -7 -165 -10 -25 -2 -81 -7 -125 -10 -44 -3 -98
-8 -120 -10 -22 -3 -71 -7 -110 -9 -38 -3 -86 -7 -105 -10 -19 -3 -64 -8 -100
-11 -36 -3 -75 -7 -85 -9 -11 -2 -50 -7 -87 -10 -37 -4 -77 -9 -90 -11 -13 -2
-48 -6 -79 -10 -31 -3 -65 -7 -75 -9 -11 -2 -44 -7 -74 -11 -30 -4 -62 -9 -70
-10 -8 -2 -37 -6 -65 -9 -46 -6 -394 -62 -440 -71 -11 -2 -81 -16 -155 -30
-74 -14 -142 -27 -150 -30 -8 -2 -28 -7 -45 -10 -16 -2 -39 -7 -50 -9 -11 -3
-63 -14 -115 -26 -507 -112 -998 -256 -1445 -422 -173 -64 -424 -165 -440
-177 -5 -4 -26 -14 -45 -21 -52 -19 -443 -212 -535 -263 -191 -106 -264 -150
-395 -236 -102 -67 -301 -208 -355 -252 -319 -260 -549 -496 -730 -748 -203
-282 -352 -598 -431 -911 -40 -158 -48 -232 -49 -410 0 -131 10 -322 20 -360
2 -8 6 -42 10 -75 3 -33 17 -127 31 -210 14 -82 28 -163 31 -180 2 -16 11 -59
19 -95 8 -36 17 -81 20 -100 3 -19 8 -38 10 -41 2 -4 6 -24 10 -45 19 -124
225 -899 313 -1179 15 -49 43 -139 62 -200 95 -312 306 -926 467 -1360 145
-391 395 -1024 463 -1172 10 -24 19 -45 19 -47 0 -16 363 -847 461 -1054 27
-57 49 -105 49 -107 0 -2 18 -43 41 -92 329 -705 604 -1244 1019 -1998 80
-147 259 -454 383 -660 349 -580 710 -1120 1035 -1550 46 -60 93 -123 105
-139 87 -116 451 -556 527 -637 8 -8 62 -67 120 -129 225 -244 507 -510 725
-686 130 -105 320 -244 333 -244 6 0 12 -3 14 -7 2 -5 23 -21 48 -37 25 -16
57 -37 72 -48 15 -10 30 -18 34 -18 4 0 15 -6 23 -14 9 -7 48 -30 86 -51 351
-190 623 -282 950 -320 112 -13 362 -8 452 9 11 3 38 7 59 10 225 36 589 170
804 297 19 12 53 31 75 42 22 12 44 25 50 29 5 5 59 40 118 78 60 39 114 75
120 80 11 9 145 109 209 156 16 12 43 34 61 50 18 16 54 46 79 67 26 21 53 44
60 50 7 7 58 53 113 103 148 134 321 309 537 541 61 66 308 359 378 448 30 39
57 72 60 75 19 18 150 192 150 199 0 5 3 11 8 13 13 5 145 183 298 400 104
146 349 513 439 654 136 216 203 323 209 336 3 7 14 25 24 40 79 123 389 658
517 893 21 39 50 93 65 120 168 309 244 455 469 910 199 401 235 474 314 645
19 41 53 115 76 163 22 49 41 90 41 91 0 2 20 46 43 97 72 154 84 182 178 396
768 1759 1371 3551 1628 4842 17 84 33 167 36 185 2 17 13 83 23 146 11 63 23
142 26 175 4 33 9 71 11 85 4 28 15 140 21 210 5 68 5 327 -1 392 -9 108 -76
374 -120 473 -7 17 -23 57 -36 90 -88 227 -257 509 -454 755 -101 127 -351
384 -460 475 -33 27 -80 67 -105 88 -25 21 -49 42 -55 46 -5 4 -55 41 -110 82
-312 233 -727 473 -1120 649 -77 34 -158 70 -180 80 -71 31 -317 126 -440 170
-66 23 -129 46 -140 50 -48 20 -437 140 -585 180 -19 5 -66 18 -105 29 -38 11
-86 23 -105 27 -36 8 -40 9 -75 18 -68 18 -297 71 -415 96 -25 5 -56 12 -70
15 -14 3 -38 8 -55 10 -16 3 -37 8 -45 10 -8 2 -31 7 -50 10 -19 3 -82 14
-140 25 -58 11 -123 22 -145 25 -22 3 -53 9 -70 12 -16 3 -39 7 -50 8 -21 3
-291 43 -335 50 -29 5 -188 25 -245 31 -22 2 -53 6 -70 9 -16 2 -59 7 -95 10
-36 3 -83 8 -105 10 -87 11 -218 22 -345 31 -47 3 -105 7 -130 9 -25 3 -92 7
-150 10 -58 3 -141 8 -185 10 -195 11 -980 25 -988 19z"/>
</g>
</svg>
